# Blender 4.2.3 LTS
# www.blender.org
mtllib HP_Node.mtl
o Cube
v 0.000000 1.000000 -0.000000
v 0.000000 -1.000000 0.000000
v 0.000000 0.000000 1.000000
v 0.000000 -0.000000 -1.000000
v 1.000000 0.000000 0.000000
v -1.000000 0.000000 0.000000
vn -0.0000 -0.0000 1.0000
vn -1.0000 -0.0000 -0.0000
vn -0.0000 -1.0000 -0.0000
vn 1.0000 -0.0000 -0.0000
vn -0.0000 -0.0000 -1.0000
vn -0.0000 1.0000 -0.0000
vt 0.000000 0.000000
s 1
f 3/1/1 6/1/2 2/1/3
f 2/1/3 5/1/4 3/1/1
f 4/1/5 5/1/4 2/1/3
f 1/1/6 6/1/2 3/1/1
f 4/1/5 6/1/2 1/1/6
f 2/1/3 6/1/2 4/1/5
f 4/1/5 1/1/6 5/1/4
f 3/1/1 5/1/4 1/1/6
