# Blender 4.2.3 LTS
# www.blender.org
mtllib HP_Sphere.mtl
o Sphere
v 0.353553 0.866025 -0.353553
v 0.612372 0.500000 -0.612372
v 0.707107 0.000000 -0.707107
v 0.612372 -0.500000 -0.612372
v 0.353553 -0.866025 -0.353553
v 0.500000 0.866025 0.000000
v 0.866025 0.500000 0.000000
v 1.000000 0.000000 0.000000
v 0.866025 -0.500000 0.000000
v 0.500000 -0.866025 0.000000
v 0.353553 0.866025 0.353553
v 0.612372 0.500000 0.612372
v 0.707107 0.000000 0.707107
v 0.612372 -0.500000 0.612372
v 0.353553 -0.866025 0.353553
v 0.000000 0.866025 0.500000
v 0.000000 0.500000 0.866025
v 0.000000 0.000000 1.000000
v 0.000000 -0.500000 0.866025
v 0.000000 -0.866025 0.500000
v 0.000000 1.000000 0.000000
v -0.353553 0.866025 0.353553
v -0.612372 0.500000 0.612372
v -0.707107 0.000000 0.707107
v -0.612372 -0.500000 0.612372
v -0.353553 -0.866025 0.353553
v 0.000000 -1.000000 0.000000
v -0.500000 0.866025 0.000000
v -0.866025 0.500000 0.000000
v -1.000000 0.000000 0.000000
v -0.866025 -0.500000 0.000000
v -0.500000 -0.866025 0.000000
v -0.353553 0.866025 -0.353553
v -0.612372 0.500000 -0.612372
v -0.707107 0.000000 -0.707107
v -0.612372 -0.500000 -0.612372
v -0.353553 -0.866025 -0.353553
v 0.000000 0.866025 -0.500000
v 0.000000 0.500000 -0.866025
v 0.000000 0.000000 -1.000000
v 0.000000 -0.500000 -0.866025
v 0.000000 -0.866025 -0.500000
vn 0.3855 0.8383 -0.3855
vn 0.6225 0.4744 -0.6225
vn 0.7071 -0.0000 -0.7071
vn 0.6225 -0.4744 -0.6225
vn 0.3855 -0.8383 -0.3855
vn 0.5452 0.8383 -0.0000
vn 0.8803 0.4744 -0.0000
vn 1.0000 -0.0000 -0.0000
vn 0.8803 -0.4744 -0.0000
vn 0.5452 -0.8383 -0.0000
vn 0.3855 0.8383 0.3855
vn 0.6225 0.4744 0.6225
vn 0.7071 -0.0000 0.7071
vn 0.6225 -0.4744 0.6225
vn 0.3855 -0.8383 0.3855
vn -0.0000 0.8383 0.5452
vn -0.0000 0.4744 0.8803
vn -0.0000 -0.0000 1.0000
vn -0.0000 -0.4744 0.8803
vn -0.0000 -0.8383 0.5452
vn -0.0000 1.0000 -0.0000
vn -0.3855 0.8383 0.3855
vn -0.6225 0.4744 0.6225
vn -0.7071 -0.0000 0.7071
vn -0.6225 -0.4744 0.6225
vn -0.3855 -0.8383 0.3855
vn -0.0000 -1.0000 -0.0000
vn -0.5452 0.8383 -0.0000
vn -0.8803 0.4744 -0.0000
vn -1.0000 -0.0000 -0.0000
vn -0.8803 -0.4744 -0.0000
vn -0.5452 -0.8383 -0.0000
vn -0.3855 0.8383 -0.3855
vn -0.6225 0.4744 -0.6225
vn -0.7071 -0.0000 -0.7071
vn -0.6225 -0.4744 -0.6225
vn -0.3855 -0.8383 -0.3855
vn -0.0000 0.8383 -0.5452
vn -0.0000 0.4744 -0.8803
vn -0.0000 -0.0000 -1.0000
vn -0.0000 -0.4744 -0.8803
vn -0.0000 -0.8383 -0.5452
vt 0.750000 0.166667
vt 0.750000 0.333333
vt 0.625000 0.333333
vt 0.625000 0.166667
vt 0.750000 0.500000
vt 0.750000 0.666667
vt 0.625000 0.666667
vt 0.625000 0.500000
vt 0.750000 0.833333
vt 0.687500 1.000000
vt 0.625000 0.833333
vt 0.687500 0.000000
vt 0.562500 0.000000
vt 0.500000 0.166667
vt 0.500000 0.500000
vt 0.500000 0.333333
vt 0.500000 0.833333
vt 0.500000 0.666667
vt 0.562500 1.000000
vt 0.437500 0.000000
vt 0.375000 0.166667
vt 0.375000 0.500000
vt 0.375000 0.333333
vt 0.375000 0.833333
vt 0.375000 0.666667
vt 0.437500 1.000000
vt 0.312500 0.000000
vt 0.250000 0.166667
vt 0.250000 0.500000
vt 0.250000 0.333333
vt 0.250000 0.833333
vt 0.250000 0.666667
vt 0.312500 1.000000
vt 0.125000 0.500000
vt 0.125000 0.333333
vt 0.125000 0.833333
vt 0.125000 0.666667
vt 0.125000 0.166667
vt 0.187500 1.000000
vt 0.187500 0.000000
vt 0.000000 0.833333
vt 0.000000 0.666667
vt 0.000000 0.333333
vt 0.000000 0.166667
vt 0.000000 0.500000
vt 0.062500 1.000000
vt 0.062500 0.000000
vt 1.000000 0.166667
vt 1.000000 0.333333
vt 0.875000 0.333333
vt 0.875000 0.166667
vt 1.000000 0.500000
vt 1.000000 0.666667
vt 0.875000 0.666667
vt 0.875000 0.500000
vt 1.000000 0.833333
vt 0.937500 1.000000
vt 0.875000 0.833333
vt 0.937500 0.000000
vt 0.812500 1.000000
vt 0.812500 0.000000
s 1
f 42/1/42 41/2/41 4/3/4 5/4/5
f 40/5/40 39/6/39 2/7/2 3/8/3
f 38/9/38 21/10/21 1/11/1
f 27/12/27 42/1/42 5/4/5
f 41/2/41 40/5/40 3/8/3 4/3/4
f 39/6/39 38/9/38 1/11/1 2/7/2
f 27/13/27 5/4/5 10/14/10
f 4/3/4 3/8/3 8/15/8 9/16/9
f 2/7/2 1/11/1 6/17/6 7/18/7
f 5/4/5 4/3/4 9/16/9 10/14/10
f 3/8/3 2/7/2 7/18/7 8/15/8
f 1/11/1 21/19/21 6/17/6
f 27/20/27 10/14/10 15/21/15
f 9/16/9 8/15/8 13/22/13 14/23/14
f 7/18/7 6/17/6 11/24/11 12/25/12
f 10/14/10 9/16/9 14/23/14 15/21/15
f 8/15/8 7/18/7 12/25/12 13/22/13
f 6/17/6 21/26/21 11/24/11
f 27/27/27 15/21/15 20/28/20
f 14/23/14 13/22/13 18/29/18 19/30/19
f 12/25/12 11/24/11 16/31/16 17/32/17
f 15/21/15 14/23/14 19/30/19 20/28/20
f 13/22/13 12/25/12 17/32/17 18/29/18
f 11/24/11 21/33/21 16/31/16
f 19/30/19 18/29/18 24/34/24 25/35/25
f 17/32/17 16/31/16 22/36/22 23/37/23
f 20/28/20 19/30/19 25/35/25 26/38/26
f 18/29/18 17/32/17 23/37/23 24/34/24
f 16/31/16 21/39/21 22/36/22
f 27/40/27 20/28/20 26/38/26
f 23/37/23 22/36/22 28/41/28 29/42/29
f 26/38/26 25/35/25 31/43/31 32/44/32
f 24/34/24 23/37/23 29/42/29 30/45/30
f 22/36/22 21/46/21 28/41/28
f 27/47/27 26/38/26 32/44/32
f 25/35/25 24/34/24 30/45/30 31/43/31
f 32/48/32 31/49/31 36/50/36 37/51/37
f 30/52/30 29/53/29 34/54/34 35/55/35
f 28/56/28 21/57/21 33/58/33
f 27/59/27 32/48/32 37/51/37
f 31/49/31 30/52/30 35/55/35 36/50/36
f 29/53/29 28/56/28 33/58/33 34/54/34
f 37/51/37 36/50/36 41/2/41 42/1/42
f 35/55/35 34/54/34 39/6/39 40/5/40
f 33/58/33 21/60/21 38/9/38
f 27/61/27 37/51/37 42/1/42
f 36/50/36 35/55/35 40/5/40 41/2/41
f 34/54/34 33/58/33 38/9/38 39/6/39
